<svg id="Layer_1" data-name="Layer 1" xmlns="http://www.w3.org/2000/svg" viewBox="0 0 522 529"><defs><style>.cls-1{fill:none;stroke:#000;stroke-linecap:round;stroke-miterlimit:10;stroke-width:17px;stroke-dasharray:0 49.86;}</style></defs><title>Artboard 1</title><path d="M93,203.74a105,105,0,0,1,10.48-1.32q5.92-.48,10.83-.48a44.43,44.43,0,0,1,10.47,1.2,24.17,24.17,0,0,1,8.74,4,20.11,20.11,0,0,1,6,7.2,23.55,23.55,0,0,1,2.27,10.8,22.1,22.1,0,0,1-1.61,8.7,25,25,0,0,1-13.11,13.26l22.2,39.84H137.68l-19.8-37H103v37H93Zm21.6,6.84h-3.24q-1.68,0-3.24.12l-2.94.24a12.21,12.21,0,0,0-2.22.36v31h9.36q8.28,0,13.68-4.08t5.4-12.72A14.06,14.06,0,0,0,127,214.78Q122.52,210.58,114.6,210.58Z"/><path d="M165.84,202.9h49.32v8.88H175.8v27.48h36.36v8.88H175.8V278h40v8.88H165.84Z"/><path d="M276.72,263.62h-32.2l-7.64,23.28h-10l28.08-84h11.76l28.32,84H284.64ZM247.62,255H274L261.6,215.5h-1.44Z"/><path d="M352,212a21.4,21.4,0,0,0-4.51-1.26,36.28,36.28,0,0,0-6-.42,27.18,27.18,0,0,0-9.7,1.8,21.5,21.5,0,0,0-8.42,5.88,30.07,30.07,0,0,0-5.9,10.68,51,51,0,0,0-2.23,16.2,51.55,51.55,0,0,0,2,15.12,31.24,31.24,0,0,0,5.53,10.8,22.53,22.53,0,0,0,8.55,6.48,27.77,27.77,0,0,0,11.14,2.16,29.78,29.78,0,0,0,5.83-.54,26.1,26.1,0,0,0,5-1.5v-12h8.88v16.2l.12.24a31.37,31.37,0,0,1-9.12,4.62,42.4,42.4,0,0,1-13.44,1.86,37.15,37.15,0,0,1-14-2.58,29.22,29.22,0,0,1-11.1-7.86,36.55,36.55,0,0,1-7.26-13.5,65.44,65.44,0,0,1-2.58-19.5q0-11.76,2.88-20a37.24,37.24,0,0,1,7.8-13.44,29.58,29.58,0,0,1,11.46-7.62,40.26,40.26,0,0,1,14-2.4q4.08,0,7.08.3a40.7,40.7,0,0,1,5.28.84,19.69,19.69,0,0,1,4,1.38,32.26,32.26,0,0,1,3.42,1.92h.12v19H352Z"/><path d="M373.8,202.9h62.4v22h-8.88V211.78h-17.4V278h13.2v8.88H386.76V278H400V211.78H382.68v13.08H373.8Z"/><path d="M111.94,339.05H87.09V361h-7V312h7v20.93h24.85V312h7v49h-7Z"/><path d="M129.37,342.62a25.73,25.73,0,0,1,1.19-8.15,16.65,16.65,0,0,1,3.5-6.13,15.28,15.28,0,0,1,5.63-3.85,20.49,20.49,0,0,1,7.6-1.32,19.45,19.45,0,0,1,7.84,1.46,15.37,15.37,0,0,1,5.6,4.1,17.05,17.05,0,0,1,3.32,6.16,26.35,26.35,0,0,1,1.09,7.73,24.61,24.61,0,0,1-1.23,8.05,17.37,17.37,0,0,1-3.5,6.09,14.8,14.8,0,0,1-5.6,3.86,20.24,20.24,0,0,1-7.52,1.33,19.63,19.63,0,0,1-8-1.48,15.12,15.12,0,0,1-5.57-4.05,17,17,0,0,1-3.29-6.13A26.14,26.14,0,0,1,129.37,342.62Zm7,0a22.11,22.11,0,0,0,.58,5.08,13.44,13.44,0,0,0,1.9,4.44,9.61,9.61,0,0,0,8.51,4.34q10.77,0,10.78-13.86a23,23,0,0,0-.59-5.24,13.22,13.22,0,0,0-1.87-4.45,9.51,9.51,0,0,0-8.32-4.31q-5.4,0-8.19,3.47T136.37,342.62Z"/><path d="M199.3,361V340.8a43.7,43.7,0,0,0-.28-5.18,10.31,10.31,0,0,0-1.12-3.74,5.35,5.35,0,0,0-2.35-2.24,8.85,8.85,0,0,0-3.88-.74,9.36,9.36,0,0,0-6.2,2.07,11.24,11.24,0,0,0-3.53,5.28V361H175.5V324.21h4.41l1.26,4.9h.7a21.15,21.15,0,0,1,5.14-4.23,14.41,14.41,0,0,1,7.39-1.71,11.67,11.67,0,0,1,6.33,1.6,10,10,0,0,1,3.89,5.4,15.86,15.86,0,0,1,5.32-5.12,14,14,0,0,1,7.21-1.88,18.51,18.51,0,0,1,5.7.76,7.87,7.87,0,0,1,3.82,2.66,12.69,12.69,0,0,1,2.17,5.12,39.54,39.54,0,0,1,.7,8.11V361H223.1V339.82a32.06,32.06,0,0,0-.32-4.83,9.09,9.09,0,0,0-1.15-3.39,5.12,5.12,0,0,0-2.35-2,9.92,9.92,0,0,0-3.95-.67A9,9,0,0,0,209,331a11.9,11.9,0,0,0-3.29,6.3V361Z"/><path d="M271.75,358a19.59,19.59,0,0,1-6.09,2.9,27.75,27.75,0,0,1-7.91,1.09,21.44,21.44,0,0,1-8-1.37,14.12,14.12,0,0,1-5.56-3.88,16.27,16.27,0,0,1-3.22-6.1,28.24,28.24,0,0,1-1-8q0-9.45,4.65-14.45t13.27-5a25.35,25.35,0,0,1,5.46.59,12.39,12.39,0,0,1,4.9,2.24,12.08,12.08,0,0,1,3.53,4.51,17.56,17.56,0,0,1,1.37,7.49c0,.75,0,1.61-.08,2.59a26.59,26.59,0,0,1-.27,2.87H246.48q.14,6.45,3.08,9.74t10,3.28a15.52,15.52,0,0,0,5.6-1,12.12,12.12,0,0,0,4.12-2.42Zm-4.83-19.12q.13-5.59-2.28-7.91a9.37,9.37,0,0,0-6.75-2.31,12,12,0,0,0-7.77,2.31q-2.88,2.31-3.37,7.91Z"/><path d="M283.71,324.21h4.34l1.26,4.69h.63a12.93,12.93,0,0,1,4.9-4.23,15,15,0,0,1,6.79-1.5c5.33,0,9.29,1.48,11.91,4.44s3.92,7.69,3.92,14.17a25.57,25.57,0,0,1-1.3,8.37,17.84,17.84,0,0,1-3.71,6.37,16,16,0,0,1-5.88,4,20.36,20.36,0,0,1-7.74,1.41c-.93,0-1.78,0-2.55-.11a14.71,14.71,0,0,1-2.14-.35c-.65-.16-1.3-.35-2-.56s-1.33-.46-2-.73V375h-6.44Zm16.39,4.41a9.52,9.52,0,0,0-6.54,2.1,12.17,12.17,0,0,0-3.41,6.45V354.1a13.53,13.53,0,0,0,3.48,1.75,15.34,15.34,0,0,0,4.8.63,11,11,0,0,0,8.83-3.71q3.19-3.7,3.2-11.06c0-4-.79-7.14-2.37-9.52S303.85,328.62,300.1,328.62Z"/><path d="M327.39,326.52q6.3-3,15.61-3a17.61,17.61,0,0,1,6.76,1.09,10.17,10.17,0,0,1,3.95,2.76,8.61,8.61,0,0,1,1.86,3.75,19.21,19.21,0,0,1,.45,4.1q0,3.84-.28,7.73c-.18,2.59-.28,5.4-.28,8.44a50.42,50.42,0,0,0,.25,5.14,28.45,28.45,0,0,0,.8,4.58h-4.69l-1.75-5.6h-.7a15.68,15.68,0,0,1-1.89,2.14,12,12,0,0,1-2.66,1.92,16.55,16.55,0,0,1-3.53,1.4,16.77,16.77,0,0,1-4.59.56,14.8,14.8,0,0,1-4.76-.73,11.4,11.4,0,0,1-3.74-2.07,9.54,9.54,0,0,1-2.49-3.25,10,10,0,0,1-.91-4.3,10.51,10.51,0,0,1,1.37-5.46,11.76,11.76,0,0,1,3.53-3.79,15.57,15.57,0,0,1,4.94-2.17,22.58,22.58,0,0,1,5.49-.7c1.45,0,2.68,0,3.68.07s1.84.11,2.52.18,1.25.14,1.71.21l1.26.17c.1-.7.17-1.3.21-1.82s.07-1.16.07-2a11.11,11.11,0,0,0-.42-3.29,4.54,4.54,0,0,0-1.36-2.13,5.79,5.79,0,0,0-2.56-1.16,19,19,0,0,0-3.92-.35,23.05,23.05,0,0,0-2.94.21,30.81,30.81,0,0,0-3.22.6,33,33,0,0,0-3.18.94,24.77,24.77,0,0,0-2.84,1.2ZM349.3,344.3a9.51,9.51,0,0,1-1.18-.21,11.86,11.86,0,0,0-1.56-.21c-.62,0-1.36-.09-2.22-.13s-1.91-.08-3.16-.08a13.18,13.18,0,0,0-6.84,1.54q-2.54,1.55-2.54,5.25a4.83,4.83,0,0,0,2,4.21,8.67,8.67,0,0,0,5.11,1.39,12.67,12.67,0,0,0,4.06-.59A12.8,12.8,0,0,0,346,354a8.52,8.52,0,0,0,2.08-2,9.49,9.49,0,0,0,1.21-2.13Z"/><path d="M400,361.17q0,7.21-4.23,10.75t-12.43,3.54a42,42,0,0,1-7.7-.57,21,21,0,0,1-5-1.54l1.54-5.81c.6.29,1.3.58,2.09.88a24.61,24.61,0,0,0,2.51.8,27.36,27.36,0,0,0,2.69.57A18.59,18.59,0,0,0,382,370a22.24,22.24,0,0,0,5.65-.6,8.09,8.09,0,0,0,3.56-1.86,6.43,6.43,0,0,0,1.81-3.21,19.44,19.44,0,0,0,.49-4.7V357h-.76a7.73,7.73,0,0,1-3.91,2.94,18.19,18.19,0,0,1-6.78,1.12q-7.95,0-11.73-4.3t-3.77-13.9q0-9.45,4.9-14.56t14.56-5.11a49.07,49.07,0,0,1,7.95.56,39.64,39.64,0,0,1,6,1.47Zm-16.41-5.53a9.46,9.46,0,0,0,6.61-2.17,11.12,11.12,0,0,0,3.29-5.67V329.74a24,24,0,0,0-3.67-.77,36.61,36.61,0,0,0-4.71-.28,10.67,10.67,0,0,0-8.45,3.47q-3,3.46-3.05,10.6c0,4.11.75,7.28,2.25,9.53S379.92,355.64,383.57,355.64Z"/><path d="M442.33,358a19.37,19.37,0,0,1-6.09,2.9,27.65,27.65,0,0,1-7.91,1.09,21.38,21.38,0,0,1-8-1.37,14.15,14.15,0,0,1-5.57-3.88,16.41,16.41,0,0,1-3.22-6.1,28.24,28.24,0,0,1-1-8q0-9.45,4.66-14.45t13.26-5a25.35,25.35,0,0,1,5.46.59,12.33,12.33,0,0,1,4.9,2.24,12,12,0,0,1,3.54,4.51,17.57,17.57,0,0,1,1.36,7.49c0,.75,0,1.61-.07,2.59a26.57,26.57,0,0,1-.28,2.87H417.06q.15,6.45,3.08,9.74t10,3.28a15.49,15.49,0,0,0,5.6-1,12.17,12.17,0,0,0,4.13-2.42Zm-4.83-19.12q.15-5.59-2.27-7.91a9.38,9.38,0,0,0-6.76-2.31,12.07,12.07,0,0,0-7.77,2.31q-2.86,2.31-3.36,7.91Z"/><rect x="94.5" y="300.5" width="333" height="5"/><circle class="cls-1" cx="261" cy="270" r="246"/></svg>